<svg xmlns="http://www.w3.org/2000/svg" viewBox="0 0 128 128" fill="currentColor">
  <path d="M63.2 1.6C28.9 1.6 28.7 16 28.7 16l.1 11.1h35.3v5.3H20.5c-7.2 0-13.1 6.3-13.1 13.6v27.2c0 7.2 6.3 12.6 13.1 12.6H33V75.3s.3 14.3 27.1 14.3c26.8 0 29.8-11.4 29.8-11.4l-.1-26H53.4v-6.7h46.4c7.2 0 13.2-5.8 13.2-13V14.6C113 7.4 106.4 1.6 99.2 1.6H63.2zM45.2 10.5a5.5 5.5 0 1 1 0 11.1 5.5 5.5 0 0 1 0-11.1z"/>
  <path d="M64.8 126.4c34.3 0 34.5-14.3 34.5-14.3l-.1-11.1H63.9v-5.3h43.7c7.2 0 12.9-6.3 12.9-13.6V54.9c0-7.2-5.8-12.6-12.9-12.6H95v10.7s-.3-14.3-27.1-14.3C41.1 38.7 38 50 38 50v26.1h38.7v6.7H29.9c-7.2 0-13.2 5.8-13.2 13V113c0 7.2 6.6 13.4 13.8 13.4h34.3zM82.7 117.5a5.5 5.5 0 1 1 0-11.1 5.5 5.5 0 0 1 0 11.1z"/>
</svg>